<?xml version="1.0" encoding="UTF-8"?>
<svg id="_レイヤー_1" data-name="レイヤー_1" xmlns="http://www.w3.org/2000/svg" version="1.1" viewBox="0 0 127.42 16.89">
  <!-- Generator: Adobe Illustrator 29.4.0, SVG Export Plug-In . SVG Version: 2.1.0 Build 152)  -->
  <defs>
    <style>
      .st0 {
        fill: #3e3a39;
      }

      .st1 {
        fill: #22ac38;
      }
    </style>
  </defs>
  <rect class="st1" x="0" y="3.32" width="5.97" height="13.4" transform="translate(5.97 20.04) rotate(-180)"/>
  <rect class="st1" x="14.19" y="3.32" width="5.97" height="13.4" transform="translate(34.35 20.04) rotate(-180)"/>
  <rect class="st1" x="7.09" y="3.32" width="5.97" height="13.4" transform="translate(20.16 20.04) rotate(-180)"/>
  <g>
    <path class="st0" d="M38.95,11.92h-9.38c.08.75.29,1.31.61,1.68.45.53,1.04.79,1.77.79.46,0,.9-.12,1.31-.35.25-.15.52-.4.82-.77l4.61.42c-.71,1.23-1.56,2.11-2.55,2.64-1,.53-2.43.8-4.29.8-1.62,0-2.89-.23-3.82-.68-.93-.46-1.7-1.18-2.31-2.17-.61-.99-.91-2.16-.91-3.5,0-1.91.61-3.45,1.83-4.63,1.22-1.18,2.91-1.77,5.06-1.77,1.75,0,3.13.26,4.14.79,1.01.53,1.78,1.3,2.31,2.3s.79,2.31.79,3.92v.53ZM34.19,9.67c-.09-.91-.34-1.55-.73-1.94-.4-.39-.91-.59-1.56-.59-.74,0-1.34.3-1.78.89-.28.37-.46.92-.54,1.64h4.61Z"/>
    <path class="st0" d="M40.21,8.9h6.81v3.62h-6.81v-3.62Z"/>
    <path class="st0" d="M59.62,14.08h-5.91l-.82,2.78h-5.32L53.9,0h5.68l6.33,16.86h-5.45l-.84-2.78ZM58.54,10.43l-1.86-6.06-1.84,6.06h3.7Z"/>
    <path class="st0" d="M80.11,0v16.86h-4.38v-1.8c-.61.77-1.17,1.28-1.68,1.55-.67.35-1.43.53-2.25.53-1.66,0-2.93-.63-3.81-1.9-.88-1.26-1.32-2.8-1.32-4.61,0-2.02.48-3.57,1.45-4.65.97-1.07,2.2-1.61,3.7-1.61.73,0,1.39.12,1.98.37.59.25,1.12.61,1.58,1.1V0h4.73ZM75.42,10.72c0-.96-.2-1.67-.61-2.14s-.92-.71-1.54-.71c-.54,0-1,.23-1.37.68-.37.45-.55,1.21-.55,2.28,0,1,.19,1.73.57,2.19.38.46.85.7,1.41.7.6,0,1.1-.23,1.49-.7s.6-1.23.6-2.29Z"/>
    <path class="st0" d="M83,4.65h4.37v1.78c.63-.74,1.26-1.27,1.91-1.59.64-.31,1.41-.47,2.32-.47.97,0,1.75.17,2.31.52.57.35,1.03.86,1.39,1.54.74-.8,1.41-1.34,2.01-1.63.6-.29,1.35-.43,2.24-.43,1.31,0,2.33.39,3.07,1.17.73.78,1.1,2,1.1,3.65v7.67h-4.69v-6.96c0-.55-.11-.96-.32-1.23-.31-.42-.7-.63-1.17-.63-.55,0-.99.2-1.33.6-.34.4-.5,1.04-.5,1.92v6.3h-4.69v-6.73c0-.54-.03-.9-.09-1.09-.1-.31-.27-.55-.52-.74-.25-.19-.53-.28-.87-.28-.54,0-.98.2-1.33.61-.35.41-.52,1.07-.52,2v6.23h-4.69V4.65Z"/>
    <path class="st0" d="M106.69,0h4.68v3.18h-4.68V0ZM106.69,4.65h4.68v12.21h-4.68V4.65Z"/>
    <path class="st0" d="M114.35,4.65h4.36v1.99c.65-.81,1.31-1.39,1.98-1.74.67-.35,1.48-.52,2.44-.52,1.3,0,2.31.39,3.04,1.16.73.77,1.1,1.96,1.1,3.57v7.76h-4.7v-6.71c0-.77-.14-1.31-.42-1.63-.28-.32-.68-.48-1.2-.48-.57,0-1.03.21-1.38.64-.35.43-.53,1.2-.53,2.31v5.86h-4.68V4.65Z"/>
  </g>
</svg>