<?xml version="1.0" encoding="UTF-8"?>
<svg id="_レイヤー_1" data-name="レイヤー_1" xmlns="http://www.w3.org/2000/svg" version="1.1" viewBox="0 0 116.64 13.81">
  <!-- Generator: Adobe Illustrator 29.4.0, SVG Export Plug-In . SVG Version: 2.1.0 Build 152)  -->
  <defs>
    <style>
      .st0 {
        fill: #3e3a39;
      }

      .st1 {
        fill: #22ac38;
      }
    </style>
  </defs>
  <g>
    <rect class="st1" x="0" y="3.16" width="4.34" height="9.73" transform="translate(4.34 16.05) rotate(-180)"/>
    <rect class="st1" x="10.31" y="3.16" width="4.34" height="9.73" transform="translate(24.95 16.05) rotate(-180)"/>
    <rect class="st1" x="5.15" y="3.16" width="4.34" height="9.73" transform="translate(14.64 16.05) rotate(-180)"/>
  </g>
  <g>
    <path class="st0" d="M19.33,9.03c0-2.72,2.29-4.74,5.38-4.74s5.33,2,5.33,4.76v.54h-8.49c.28,1.7,1.72,2.79,3.72,2.79,1.28,0,2.2-.45,2.42-1.18h2.2c-.33,1.59-2.15,2.61-4.68,2.61-3.48,0-5.88-1.95-5.88-4.77ZM27.73,8.15c-.28-1.45-1.46-2.43-3.05-2.43s-2.76.98-3.09,2.43h6.14Z"/>
    <path class="st0" d="M34.46,7.89h7.4v1.61h-7.4v-1.61Z"/>
    <path class="st0" d="M55.7,10.21h-6.01l-1.37,3.31h-2.37L51.17,1h3.05l5.22,12.52h-2.37l-1.37-3.31ZM55.03,8.6l-2.33-5.56-2.33,5.56h4.66Z"/>
    <path class="st0" d="M70.48,12.3c-.81.93-2.15,1.5-3.76,1.5-2.92,0-4.94-1.93-4.94-4.76s2.02-4.76,4.94-4.76c1.61,0,2.96.57,3.76,1.5V1h2.18v12.52h-2.18v-1.22ZM67.13,12.37c1.94,0,3.35-1.39,3.35-3.33s-1.42-3.33-3.35-3.33-3.18,1.34-3.18,3.33,1.28,3.33,3.18,3.33Z"/>
    <path class="st0" d="M85.21,5.9c-1.13-.02-1.63.93-1.63,3.08v4.54h-2.09v-5.7c0-1.23-.52-1.9-1.52-1.91-1.02-.02-1.39.7-1.42,2.81l-.02,4.81h-2.11V4.58h2.15v1.02c.48-.82,1.28-1.31,2.28-1.31,1.13,0,2,.59,2.42,1.59.52-.98,1.46-1.59,2.63-1.59,1.68,0,2.74,1.23,2.74,3.17v6.06h-2.13v-5.7c0-1.29-.41-1.9-1.31-1.91Z"/>
    <path class="st0" d="M92.24,11.91h4.05v-5.72h-3.39v-1.61h5.57v7.33h4.05v1.61h-10.27v-1.61ZM95.96.02h2.83v2.5h-2.83V.02Z"/>
    <path class="st0" d="M111.94,5.9c-1.81-.02-3.18,1.11-3.18,2.61v5.01h-2.18V4.58h2.18v1.11c.72-.86,2.04-1.39,3.66-1.39,2.48,0,4.22,1.31,4.22,3.17v6.06h-2.18v-5.7c0-1.11-1.04-1.9-2.52-1.91Z"/>
  </g>
</svg>